<svg width="25" height="24" viewBox="0 0 25 24" fill="none" xmlns="http://www.w3.org/2000/svg">
<g clip-path="url(#clip0_4590_99)">
<path d="M12.5 21.25C12.9142 21.25 13.25 21.5858 13.25 22V23C13.25 23.4142 12.9142 23.75 12.5 23.75C12.0858 23.75 11.75 23.4142 11.75 23V22C11.75 21.5858 12.0858 21.25 12.5 21.25ZM4.96973 18.4697C5.26262 18.1769 5.7374 18.1769 6.03027 18.4697C6.32315 18.7626 6.32311 19.2374 6.03027 19.5303L5.03027 20.5303C4.73738 20.8232 4.26262 20.8232 3.96973 20.5303C3.67683 20.2374 3.67683 19.7626 3.96973 19.4697L4.96973 18.4697ZM18.9697 18.4697C19.2626 18.1769 19.7374 18.1769 20.0303 18.4697L21.0303 19.4697C21.3232 19.7626 21.3232 20.2374 21.0303 20.5303C20.7374 20.8232 20.2626 20.8232 19.9697 20.5303L18.9697 19.5303C18.6769 19.2374 18.6769 18.7626 18.9697 18.4697ZM12.5 5.25C16.2279 5.25 19.25 8.27208 19.25 12C19.25 15.7279 16.2279 18.75 12.5 18.75C8.77208 18.75 5.75 15.7279 5.75 12C5.75 8.27208 8.77208 5.25 12.5 5.25ZM12.5 6.75C9.60051 6.75 7.25 9.10051 7.25 12C7.25 14.8995 9.60051 17.25 12.5 17.25C15.3995 17.25 17.75 14.8995 17.75 12C17.75 9.10051 15.3995 6.75 12.5 6.75ZM2.5 11.25C2.91421 11.25 3.25 11.5858 3.25 12C3.25 12.4142 2.91421 12.75 2.5 12.75H1.5C1.08579 12.75 0.75 12.4142 0.75 12C0.75 11.5858 1.08579 11.25 1.5 11.25H2.5ZM23.5 11.25C23.9142 11.25 24.25 11.5858 24.25 12C24.25 12.4142 23.9142 12.75 23.5 12.75H22.5C22.0858 12.75 21.75 12.4142 21.75 12C21.75 11.5858 22.0858 11.25 22.5 11.25H23.5ZM3.96973 3.46973C4.26262 3.17683 4.73738 3.17683 5.03027 3.46973L6.03027 4.46973C6.32311 4.76262 6.32315 5.2374 6.03027 5.53027C5.7374 5.82315 5.26262 5.82311 4.96973 5.53027L3.96973 4.53027C3.67683 4.23738 3.67683 3.76262 3.96973 3.46973ZM19.9697 3.46973C20.2626 3.17683 20.7374 3.17683 21.0303 3.46973C21.3232 3.76262 21.3232 4.23738 21.0303 4.53027L20.0303 5.53027C19.7374 5.82311 19.2626 5.82315 18.9697 5.53027C18.6769 5.2374 18.6769 4.76262 18.9697 4.46973L19.9697 3.46973ZM12.5 0.25C12.9142 0.25 13.25 0.585786 13.25 1V2C13.25 2.41421 12.9142 2.75 12.5 2.75C12.0858 2.75 11.75 2.41421 11.75 2V1C11.75 0.585786 12.0858 0.25 12.5 0.25Z" fill="white"/>
</g>
<defs>
<clipPath id="clip0_4590_99">
<rect width="24" height="24" fill="white" transform="translate(0.5)"/>
</clipPath>
</defs>
</svg>
