<svg width="51" height="50" viewBox="0 0 51 50" fill="none" xmlns="http://www.w3.org/2000/svg">
<rect x="0.5" width="50" height="50" rx="25" fill="#4A58F5"/>
<path d="M22.251 22.8125C23.1823 22.813 23.9372 23.5686 23.9375 24.5V35.501C23.937 36.4322 23.1822 37.187 22.251 37.1875H15C14.0686 37.1872 13.313 36.4323 13.3125 35.501V24.5C13.3128 23.5684 14.0684 22.8128 15 22.8125H22.251ZM36.001 29.0625C36.9323 29.063 37.6872 29.8186 37.6875 30.75V35.501C37.687 36.4322 36.9322 37.187 36.001 37.1875H28.75C27.8186 37.1872 27.063 36.4323 27.0625 35.501V30.75C27.0628 29.8184 27.8184 29.0628 28.75 29.0625H36.001ZM15.1875 35.3125H22.0625V24.6875H15.1875V35.3125ZM28.9375 35.3125H35.8125V30.9375H28.9375V35.3125ZM36.001 12.8125C36.9323 12.813 37.6872 13.5686 37.6875 14.5V25.501C37.687 26.4322 36.9322 27.187 36.001 27.1875H28.75C27.8186 27.1872 27.063 26.4323 27.0625 25.501V14.5C27.0628 13.5684 27.8184 12.8128 28.75 12.8125H36.001ZM28.9375 25.3125H35.8125V14.6875H28.9375V25.3125ZM22.251 12.8125C23.1823 12.813 23.9372 13.5686 23.9375 14.5V19.251C23.937 20.1822 23.1822 20.937 22.251 20.9375H15C14.0686 20.9372 13.313 20.1823 13.3125 19.251V14.5C13.3128 13.5684 14.0684 12.8128 15 12.8125H22.251ZM15.1875 19.0625H22.0625V14.6875H15.1875V19.0625Z" fill="white"/>
</svg>
