<svg width="25" height="24" viewBox="0 0 25 24" fill="none" xmlns="http://www.w3.org/2000/svg">
<path d="M8.44043 2.32809C8.67274 2.21275 8.94841 2.22576 9.16895 2.36227C9.38956 2.49899 9.52435 2.74043 9.52441 2.99997C9.52441 7.13912 10.5505 10.0953 12.4775 12.0224C14.4047 13.9496 17.3608 14.9756 21.5 14.9756C21.7596 14.9756 22.0009 15.1104 22.1377 15.331C22.2742 15.5515 22.2872 15.8272 22.1719 16.0595C20.4966 19.4306 17.0162 21.75 12.9932 21.75C7.33608 21.7498 2.75013 17.1639 2.75 11.5068C2.75007 7.48386 5.06944 4.00333 8.44043 2.32809L8.77344 2.99997H8.77441L8.44043 2.32809ZM8.05957 4.2861C5.75807 5.86181 4.25006 8.50921 4.25 11.5068C4.25013 16.3355 8.1645 20.2498 12.9932 20.25C15.9909 20.25 18.6372 18.7411 20.2129 16.4394C16.4593 16.2423 13.4941 15.1601 11.417 13.083C9.33973 11.0057 8.25658 8.04017 8.05957 4.2861Z" fill="white"/>
</svg>
